<svg width="578" height="142" viewBox="0 0 578 142" xmlns="http://www.w3.org/2000/svg"><title>Group 2</title><g fill="none" fill-rule="evenodd"><g fill-rule="nonzero"><path d="M63.099 6.561c-4.462.634-5.099 1.268-7.33 6.659-1.593 4.439-5.417 16.804-11.154 35.512h-2.23c-3.825-10.78-8.286-23.464-11.792-33.293-3.824 11.732-7.648 22.512-10.835 33.293h-1.912c-3.505-12.05-7.33-23.78-10.835-35.512C5.099 7.512 4.143 7.195 0 6.56V4.659h16.253V6.56c-4.78.634-5.1 1.268-3.824 4.439 2.549 8.878 5.098 18.073 8.285 27.585C24.22 27.171 28.044 16.39 31.55 5.293h1.913c3.824 10.78 7.648 21.56 11.79 33.292 2.869-8.878 6.374-21.878 7.65-26.634.955-4.122.636-4.756-4.462-5.39V4.659H63.1V6.56zm16.253 42.171c-.956 0-2.55-.634-3.187-1.269-.956-.95-1.275-1.902-1.594-2.853-2.549 1.902-5.736 4.122-7.967 4.122-4.78 0-7.967-3.805-7.967-8.244 0-3.17 1.594-5.39 5.418-6.659 4.143-1.268 8.923-3.17 10.516-4.439v-1.268c0-4.756-2.23-7.61-5.736-7.61-1.275 0-2.23.634-2.868 1.268-.956.952-1.593 2.22-1.912 4.44-.319.95-.956 1.585-1.912 1.585-1.275 0-2.868-1.268-2.868-2.854 0-.951.956-1.585 2.23-2.536 1.913-1.269 6.374-3.805 10.198-4.756 1.912 0 4.143.634 5.418 1.902 2.23 1.902 2.868 4.756 2.868 8.244V40.17c0 2.853 1.275 4.122 2.23 4.122.957 0 1.594-.317 2.55-.634l.638 1.585-6.055 3.488zm-5.1-16.805c-1.274.634-4.78 2.22-6.054 2.853-2.55 1.269-4.143 2.537-4.143 4.757 0 3.487 2.55 5.073 4.78 5.073 1.594 0 4.143-1.269 5.418-2.537V31.927zm29.001-5.073c-1.275-4.122-3.506-6.659-6.693-6.659-2.549 0-4.461 1.903-4.461 4.44 0 2.853 2.55 4.438 5.736 5.706 5.1 2.22 8.286 4.44 8.286 9.196 0 6.024-5.736 9.195-11.154 9.195-3.505 0-6.374-1.269-7.648-2.22-.319-.951-.956-5.39-.956-7.927l1.593-.317c1.275 4.44 4.143 8.244 8.286 8.244 2.55 0 4.78-1.902 4.78-4.756s-1.912-4.439-5.418-6.024c-4.142-1.903-8.285-4.122-8.285-9.195 0-4.757 4.143-8.561 10.197-8.561 2.869 0 4.462.634 6.055 1.268.638 1.585 1.275 5.39 1.594 6.976l-1.912.634zm23.582 21.244v-1.586c3.824-.317 4.462-.951 4.462-5.073V30.341c0-5.39-2.231-8.243-6.693-8.243-2.55 0-5.099 1.268-7.01 3.487V41.44c0 4.122.318 4.756 4.142 5.073v1.586h-14.34v-1.586c4.142-.317 4.461-.634 4.461-5.073V9.732c0-4.122 0-4.44-4.461-5.073V3.073c3.186-.317 7.33-1.585 9.879-2.22v22.513c2.23-2.537 6.055-4.756 9.56-4.756 5.418 0 9.242 3.488 9.242 11.414v11.732c0 4.44.319 4.756 4.461 5.073v1.586h-13.703v-.317zm15.935 0v-1.586c4.142-.317 4.78-.951 4.78-5.39V27.488c0-4.122-.32-4.44-4.143-5.073v-1.903c3.186-.317 6.373-1.268 9.241-2.536v22.829c0 4.439.319 5.073 4.78 5.39v1.585H142.77v.318zm3.505-39.318c0-1.902 1.593-3.487 3.505-3.487s3.506 1.585 3.506 3.487c0 1.903-1.594 3.488-3.506 3.488-1.912 0-3.505-1.585-3.505-3.488zm31.868 39.318v-1.586c3.824-.317 4.461-.951 4.461-5.39V29.707c0-4.439-1.593-7.61-6.055-7.61-2.549 0-5.417 1.586-7.33 3.488v15.537c0 4.439.32 4.756 4.462 5.073v1.585h-14.659v-1.585c4.462-.317 4.78-.951 4.78-5.073V27.488c0-4.122-.318-4.44-4.143-5.073v-1.903c3.187-.634 6.374-1.268 9.242-2.853v5.707c1.275-.951 2.868-1.903 4.462-3.17 1.912-1.27 3.505-1.903 5.417-1.903 5.418 0 8.605 3.805 8.605 10.146v13c0 4.439.318 4.756 4.142 5.073v1.586h-13.384zm45.253-28.854c-.638.951-1.912 2.854-2.869 3.488l-3.824-.317c1.275 1.585 1.912 3.487 1.912 6.024 0 7.293-6.055 10.78-11.79 10.78-1.276 0-2.232-.317-3.506-.317-.956.635-1.912 1.903-1.912 2.854 0 1.268 1.274 2.537 4.142 2.537h7.011c4.143 0 9.56 1.268 9.56 7.927 0 6.658-7.966 13.317-16.89 13.317-7.329 0-11.472-4.44-11.472-8.244 0-1.586.638-2.854 1.594-3.805 1.274-1.268 3.824-3.488 5.417-4.756-2.55-.634-4.143-2.22-5.099-3.805-.637-.951-.956-2.22-.637-2.854 2.55-.951 4.78-2.853 5.736-4.122-2.868-1.268-5.736-4.439-5.736-8.878 0-7.61 6.692-11.097 12.11-11.097 2.23 0 4.461.634 6.373 1.585 3.187 0 6.693-.634 9.242-.951l.638.634zm-21.033 31.073c-1.594 1.268-3.187 3.17-3.187 5.073 0 3.488 3.824 6.342 8.923 6.342 6.374 0 9.56-3.171 9.56-7.293 0-2.22-1.274-3.805-3.186-4.756-1.594-.634-3.506-.951-6.374-.951-3.187 0-4.78.317-5.736 1.585zm-1.275-22.195c0 5.073 2.55 8.878 6.374 8.878 2.868 0 5.417-2.537 5.417-7.927s-2.55-8.878-6.374-8.878c-2.868 0-5.417 2.854-5.417 7.927zm38.879 19.976c-1.275.634-2.23.95-2.868.95-4.143 0-6.692-2.536-6.692-7.926V21.463h-4.462l-.319-.634 1.912-1.902h3.187V14.17l4.462-4.44h.956v9.196h7.648c.638.634.319 2.22-.318 2.536h-7.649v17.122c0 5.39 2.23 6.342 3.824 6.342 1.594 0 3.187-.634 4.143-1.268l.638 1.585-4.462 2.854zm35.055-15.22c0 10.78-7.967 15.854-14.66 15.854-9.241 0-14.659-7.293-14.659-14.586 0-11.097 8.605-15.853 14.66-15.853 8.285-.317 14.659 6.341 14.659 14.585zm-22.945-.951c0 8.244 3.824 14.585 9.242 14.585 4.143 0 7.648-3.17 7.648-12.049 0-7.926-3.187-14.268-8.923-14.268-4.462 0-7.967 4.122-7.967 11.732zm44.934 16.171v-1.586c3.824-.317 4.462-.951 4.462-5.39V29.707c0-4.439-1.594-7.61-6.055-7.61-2.55 0-5.418 1.586-7.33 3.488v15.537c0 4.439.319 4.756 4.461 5.073v1.585H277.89v-1.585c4.462-.317 4.78-.951 4.78-5.073V27.488c0-4.122-.318-4.44-4.143-5.073v-1.903c3.187-.634 6.374-1.268 9.242-2.853v5.707c1.275-.951 2.868-1.903 4.462-3.17 1.912-1.27 3.505-1.903 5.417-1.903 5.418 0 8.605 3.805 8.605 10.146v13c0 4.439.318 4.756 4.143 5.073v1.586H297.01zM367.44 37c-.956 3.17-2.55 7.927-3.825 10.146-1.912.317-7.648 1.903-12.428 1.903-16.572 0-23.901-11.415-23.901-22.195 0-13.952 10.835-23.147 25.813-23.147 5.417 0 9.879 1.586 11.791 1.903.637 3.805.956 6.341 1.275 10.146l-1.912.317c-1.594-6.975-5.737-9.83-13.066-9.83-11.154 0-17.209 9.513-17.209 19.66 0 12.365 7.33 20.926 17.527 20.926 6.693 0 10.517-3.805 13.704-10.463l2.23.634zm26.131 5.39c-4.142 5.39-8.923 6.342-10.835 6.342-8.285 0-13.066-6.659-13.066-14.269 0-4.439 1.594-8.56 4.462-11.731 2.868-3.171 6.373-4.756 9.879-4.756 5.418 0 10.198 5.073 10.198 10.146 0 1.268-.319 1.902-1.594 2.22-1.274.317-9.56.95-17.527 1.268 0 9.195 5.417 12.683 9.879 12.683 2.55 0 5.099-.952 7.648-3.488l.956 1.585zm-18.164-13.634c3.824 0 7.33 0 11.472-.317 1.275 0 1.594-.317 1.594-1.268 0-3.488-2.231-6.659-5.737-6.659-3.505 0-6.373 2.854-7.33 8.244zm39.516 19.342v-1.586c3.824-.317 4.462-.951 4.462-5.39V29.707c0-4.439-1.594-7.61-6.055-7.61-2.55 0-5.418 1.586-7.33 3.488v15.537c0 4.439.319 4.756 4.462 5.073v1.585h-14.66v-1.585c4.462-.317 4.78-.951 4.78-5.073V27.488c0-4.122-.318-4.44-4.142-5.073v-1.903c3.186-.634 6.373-1.268 9.241-2.853v5.707c1.275-.951 2.868-1.903 4.462-3.17 1.912-1.27 3.505-1.903 5.417-1.903 5.418 0 8.605 3.805 8.605 10.146v13c0 4.439.319 4.756 4.143 5.073v1.586h-13.385zm28.681 0c-1.274.634-2.23.95-2.868.95-4.143 0-6.692-2.536-6.692-7.926V21.463h-4.462l-.318-.634 1.912-1.902h3.187V14.17l4.461-4.44h.956v9.196h7.649c.637.634.318 2.22-.32 2.536h-7.01v17.122c0 5.39 2.23 6.342 3.824 6.342 1.593 0 3.187-.634 4.143-1.268l.637 1.585-5.099 2.854zm29.956-5.708c-4.142 5.39-8.923 6.342-10.835 6.342-8.285 0-13.066-6.659-13.066-14.269 0-4.439 1.594-8.56 4.462-11.731 2.868-3.171 6.374-4.756 9.879-4.756 5.418 0 10.198 5.073 10.198 10.146 0 1.268-.319 1.902-1.594 2.22-1.274.317-9.56.95-17.527 1.268 0 9.195 5.418 12.683 9.879 12.683 2.55 0 5.099-.952 7.648-3.488l.956 1.585zm-18.483-13.634c3.824 0 7.33 0 11.472-.317 1.275 0 1.594-.317 1.594-1.268 0-3.488-2.23-6.659-5.736-6.659s-6.374 2.854-7.33 8.244zm30.912-3.488c1.912-3.488 4.78-6.975 7.967-6.975 2.23 0 3.824 1.585 3.824 3.487 0 1.269-.956 2.537-2.23 3.171-.957.317-1.275.317-1.913 0-.956-.951-1.593-1.268-2.868-1.268-1.593 0-3.824 1.902-5.417 5.707v12.05c0 4.439.318 4.756 5.417 5.073v1.586h-15.296v-1.586c4.142-.317 4.461-.951 4.461-5.073V27.805c0-4.44-.319-4.756-4.143-5.073v-2.22c3.187-.634 6.374-1.268 9.56-2.853l.638 7.61zM7.648 74.732c.638-2.22 1.275-3.805 2.55-5.073 1.593-1.586 3.187-2.22 4.461-2.22 1.275 0 1.912.634 1.912 1.585 0 .635-.637 1.269-.956 1.586-.318 0-.318.317-.637 0-.637-.951-1.275-1.586-1.912-1.586s-.956.317-1.912 5.708h3.187l-.638.95-2.868.318c-.319 2.537-.956 4.756-1.593 7.927-.956 4.439-2.231 6.341-4.143 7.927-.956.634-2.23 1.268-2.868 1.268-.956 0-1.912-.634-1.912-1.268s.637-1.269.956-1.586c.318-.317.318-.317.637 0 .637.634 1.593.952 2.23.952.32 0 .638-.318.957-.635 0-.317.319-1.268 1.275-5.707.637-3.805.956-6.341 1.593-8.878h-2.55v-.317l.957-.951h1.274zm5.418 7.609c0-3.487 1.912-6.024 4.143-7.292.956-.634 2.55-.951 3.505-.951 2.55 0 4.143 1.585 4.143 4.439 0 2.22-.956 4.756-2.868 6.658-1.275.951-3.187 1.585-4.78 1.585-3.187 0-4.143-2.536-4.143-4.439zm5.736 3.171c.956-.317 2.231-3.17 2.231-6.975 0-2.22-.637-2.854-1.593-2.854h-.638c-.637.317-2.23 2.537-2.23 6.976 0 2.219.955 2.853 1.593 2.853h.637zm7.33-8.561c1.593-1.585 3.505-2.853 4.461-2.853.956 0 .956.95.638 3.17l-.319 1.269c1.275-2.537 2.55-4.44 3.824-4.44.638 0 .956.318 1.275.635.319.634.319 1.268 0 1.585-.319.634-.637.951-.956.951-.319.317-.637.317-.637 0h-.956c-.32 0-.638 0-.957.952-.637.95-1.274 2.219-1.593 2.853-.319 1.586-.637 3.805-.956 5.073-.956 0-2.23.317-3.187.634l-.318-.317 1.912-8.56c.318-.952.318-1.269 0-1.269-.319 0-1.275.634-1.594.951l-.637-.634z" fill="#626568"/><path d="M73.615 94.707c-.318 2.537-1.912 9.83-2.868 12.366H33.462v-2.22c7.01-.633 7.648-1.268 7.648-7.292V66.805c0-6.976-.637-7.293-6.692-7.61v-2.22h34.736c0 1.903.319 7.293.637 11.098l-2.23.317c-.638-3.17-1.594-5.073-2.55-6.658-.956-1.586-3.187-2.22-8.923-2.22h-6.055c-2.55 0-2.55 0-2.55 2.537v17.756h7.33c7.011 0 7.33-.634 8.286-5.707h2.23V89H63.1c-.956-5.707-1.594-6.024-8.286-6.024h-7.01V97.56c0 3.488.318 5.39 1.911 6.341 1.594.952 4.143.952 7.967.952 6.055 0 7.967-.634 9.88-2.537a22.098 22.098 0 0 0 3.824-7.293l2.23-.317zM96.88 125.78v-2.219c6.054-.634 6.691-.951 6.691-6.341v-12.683l-8.285 3.17c-11.473 0-16.89-8.878-16.89-16.17 0-11.098 10.197-19.659 20.714-19.342 2.868.317 4.461.634 5.417.951.957.317 1.275.317 2.231.317.319 0 1.594-.317 2.55-.95l.318.316c0 1.586-.318 3.171-.318 8.244v36.147c0 5.39.637 5.707 6.055 6.341v2.22H96.879zm6.691-47.243c-1.912-1.903-5.098-3.171-7.648-3.171-5.418 0-10.516 4.756-10.516 13.951 0 9.512 6.692 14.585 12.428 14.585 2.55 0 4.143-.634 5.736-1.268V78.537zm48.121 26.633c-3.505.635-7.648 1.586-11.472 2.854l-.319-.317v-5.39c-1.912 1.268-3.505 2.854-5.736 4.122-2.23 1.268-3.824 1.902-6.055 1.902-5.099 0-9.56-3.17-9.56-11.414v-15.22c0-4.122-.32-4.439-4.78-5.39v-2.22c3.505-.317 7.329-.634 11.153-1.268-.319 2.537-.319 6.025-.319 11.415v10.463c0 6.976 3.506 8.878 7.011 8.878 2.869 0 5.737-1.268 8.286-3.805V81.707c0-4.439-.319-4.756-6.055-5.39v-2.22c4.143-.317 7.967-.634 12.11-1.268v26c0 3.805.637 4.44 3.506 4.44h2.23v1.902zm3.506 1.903v-1.902c4.78-.317 5.417-.951 5.417-6.342V82.976c0-4.756-.318-5.074-4.78-6.025V75.05c3.824-.634 7.649-1.586 11.154-3.171v26.634c0 5.39.637 5.708 5.418 6.342v1.902h-17.21v.317zm4.143-45.658c0-2.22 1.912-4.122 3.824-4.122 2.23 0 3.824 1.585 3.824 4.122 0 2.22-1.593 3.805-3.824 3.805-1.912.317-3.824-1.586-3.824-3.805zm32.186 45.658c-1.274.634-2.549.951-3.186.951-4.78 0-7.649-3.17-7.649-9.195V76.317h-5.417l-.319-.634 2.23-2.22h3.506v-5.707l5.1-5.073h.955v10.78h8.923c.638.635.319 2.537-.318 3.171h-8.286V96.61c0 6.341 2.55 7.292 4.461 7.292 1.913 0 3.825-.634 4.78-1.268l.638 1.903-5.418 2.536zm32.825.951c-1.275 0-2.868-.634-3.506-1.585-.956-.951-1.593-2.22-1.912-3.488-3.187 2.22-7.01 5.073-9.242 5.073-5.417 0-9.241-4.439-9.241-9.512 0-3.805 1.912-6.341 6.373-7.61 4.78-1.585 10.517-3.487 12.11-5.073v-1.268c0-5.707-2.55-8.878-6.692-8.878-1.594 0-2.868.634-3.506 1.585-.956.952-1.593 2.854-2.23 5.073-.32 1.269-1.275 1.903-2.231 1.903-1.275 0-3.506-1.585-3.506-3.488 0-1.268.956-1.902 2.55-3.17 2.23-1.586 7.33-4.44 11.79-5.39 2.232 0 4.781.633 6.375 2.219 2.868 2.22 3.505 5.39 3.505 9.512v14.268c0 3.488 1.275 4.756 2.868 4.756.956 0 1.912-.317 2.868-.951l.638 1.902-7.011 4.122zm-5.418-19.658c-1.593.951-5.418 2.536-7.01 3.17-3.188 1.269-4.781 2.854-4.781 5.708 0 4.122 3.187 6.024 5.417 6.024 1.913 0 4.78-1.268 6.374-2.853v-12.05zm30.912-15.22c1.275-.634 2.23-.634 3.187-.634 8.286 0 15.297 7.293 15.297 16.17 0 11.416-9.242 19.342-19.44 19.342-3.187 0-7.33-.634-11.472-2.853V62.049c0-4.756 0-5.39-5.1-5.708V54.44c3.506-.317 8.286-1.585 11.155-2.854v23.78l6.373-2.219zm-6.373 25.05c0 1.267 0 1.902.318 2.536.319 1.585 2.868 4.122 7.011 4.439 6.374 0 10.517-5.39 10.517-14.586 0-8.878-5.418-13.95-11.792-13.95-2.23 0-4.78.633-6.054 1.585v19.975zm29 8.877v-1.902c4.78-.317 5.736-.951 5.736-6.025v-36.78c0-5.39-.319-5.39-5.418-6.025V54.44c4.143-.317 8.923-1.902 11.473-2.854V98.83c0 5.073.637 5.708 5.736 6.025v1.902h-17.527v.317zm49.077-6.658c-4.78 6.024-10.198 7.61-12.748 7.61-9.56 0-15.297-7.61-15.297-16.488 0-5.39 1.913-10.147 5.1-13.635 3.186-3.487 7.33-5.707 11.472-5.707 6.374 0 11.791 5.707 11.791 11.732 0 1.585-.319 2.22-1.912 2.536-1.275.317-11.154.952-20.396 1.269 0 10.463 6.055 14.902 11.473 14.902 3.187 0 6.055-1.268 8.923-3.805l1.593 1.586zM300.197 84.56c4.461 0 8.604 0 13.066-.317 1.274 0 1.912-.317 1.912-1.585 0-4.122-2.55-7.61-7.011-7.61-3.187 0-6.692 3.17-7.967 9.512zm95.605 1.27c-4.78.633-5.099.95-5.099 5.707v6.658c0 2.854 0 5.073.638 7.293-4.78 1.268-11.154 2.853-17.528 2.853-17.209 0-28.681-10.78-28.681-26 0-18.073 14.34-26.634 29.637-26.634 6.374 0 12.429 1.586 14.978 2.22.319 2.853.638 6.975 1.275 12.049l-2.23.317c-1.913-9.513-7.65-12.05-15.297-12.05-11.792 0-20.715 8.562-20.715 23.147 0 11.098 6.693 24.098 21.67 24.098 2.55 0 5.1-.634 6.693-1.268 1.593-.952 2.55-1.903 2.55-5.074v-6.658c0-5.708-.638-6.025-8.286-6.659v-2.22h19.758v2.22h.637zm15.934-5.391c2.231-3.805 5.737-8.244 9.56-8.244 2.55 0 4.462 1.903 4.462 3.805 0 1.585-.956 3.17-2.55 3.805-.955.317-1.593.317-2.23 0-.956-1.268-1.912-1.585-3.187-1.585-1.912 0-4.461 2.219-6.373 6.658v14.268c0 5.074.318 5.708 6.373 6.025v1.902h-17.846v-1.902c4.78-.317 5.418-.951 5.418-6.025v-16.17c0-5.074-.319-5.39-4.78-6.025v-1.585c3.824-.634 7.33-1.586 10.835-3.17l.318 8.243zm49.077 9.195c0 12.366-9.242 18.39-16.89 18.39-10.835 0-17.209-8.56-17.209-17.122 0-12.682 9.88-18.707 17.21-18.707 9.56 0 16.89 7.61 16.89 17.44zm-26.769-1.268c0 9.83 4.143 17.122 10.835 17.122 4.78 0 8.923-3.488 8.923-14.268 0-9.196-3.505-16.488-10.516-16.488-5.1 0-9.242 4.756-9.242 13.634zm79.989-13.317c-3.824.634-4.462 1.585-6.374 5.707-2.23 6.024-5.736 16.488-9.241 26.951h-2.231c-3.187-8.244-6.374-15.853-9.56-24.097-2.869 7.61-6.056 15.536-9.242 24.097h-2.231c-2.868-9.195-5.736-18.39-8.923-27.585-1.275-4.122-2.231-4.44-5.736-5.073v-1.903h16.252v1.903c-4.78.634-5.099 1.268-3.824 4.756l5.736 18.073c2.868-7.293 5.737-15.537 8.923-24.415h1.913c2.868 7.927 6.054 16.171 9.241 24.732 1.594-5.39 3.824-12.049 5.418-17.756.956-4.122.637-4.439-4.462-5.073v-1.903h14.022v1.586h.319zm17.847 32.024c-1.276.634-2.55.951-3.188.951-4.78 0-7.648-3.17-7.648-9.195V76.317h-5.418l-.318-.634 2.23-2.22h3.506v-5.707l5.099-5.073h.956v10.78h8.923c.637.635.319 2.537-.319 3.171h-8.285V96.61c0 6.341 2.549 7.292 4.461 7.292 1.912 0 3.824-.634 4.78-1.268l.638 1.903-5.418 2.536zm29.318 0v-1.902c4.461-.317 5.099-.951 5.099-6.025v-13c0-6.341-2.55-9.512-7.649-9.512-2.868 0-6.055 1.586-7.967 3.805v18.39c0 5.073.319 5.39 5.1 6.025v1.902h-16.572v-1.902c4.78-.317 5.417-.952 5.417-6.025V62.05c0-4.756 0-5.39-5.417-5.708V54.44c3.824-.634 8.286-1.902 11.472-2.854v26c2.868-2.853 7.011-5.707 11.154-5.707 6.374 0 10.835 3.805 10.835 13.317V98.83c0 5.073.638 5.708 5.1 6.025v1.902h-16.572v.317z" fill="#5CC1A3"/></g><text font-family="Volkhov-Italic, Volkhov" font-size="20" font-style="italic" fill="#4A4A4A" transform="translate(0 -2)"><tspan x="123" y="137">Evidence for a stronger economy</tspan></text></g></svg>